#N canvas 1212 495 450 300 12;
#X obj 68 80 tgl 25 0 empty empty empty 17 7 0 10 -262144 -1 -1 0 1
;
#X obj 68 110 oscformat rotor1 state;
#X obj 231 80 tgl 25 0 empty empty empty 17 7 0 10 -262144 -1 -1 0
1;
#X obj 231 110 oscformat rotor2 state;
#X obj 127 225 netsend -b -u;
#X msg 246 185 disconnect;
#X msg 228 155 connect 192.168.1.68 54321;
#X connect 0 0 1 0;
#X connect 1 0 4 0;
#X connect 2 0 3 0;
#X connect 3 0 4 0;
#X connect 5 0 4 0;
#X connect 6 0 4 0;
